<?xml version="1.0" encoding="UTF-8" standalone="no"?>
<!-- Created with Inkscape (http://www.inkscape.org/) -->

<svg
   xmlns:dc="http://purl.org/dc/elements/1.1/"
   xmlns:cc="http://creativecommons.org/ns#"
   xmlns:rdf="http://www.w3.org/1999/02/22-rdf-syntax-ns#"
   xmlns:svg="http://www.w3.org/2000/svg"
   xmlns="http://www.w3.org/2000/svg"
   version="1.1"
   width="11"
   height="11"
   id="svg2">
  <defs
     id="defs4" />
  <metadata
     id="metadata7">
    <rdf:RDF>
      <cc:Work
         rdf:about="">
        <dc:format>image/svg+xml</dc:format>
        <dc:type
           rdf:resource="http://purl.org/dc/dcmitype/StillImage" />
        <dc:title></dc:title>
      </cc:Work>
    </rdf:RDF>
  </metadata>
  <g
     transform="translate(-225,-260.36218)"
     id="layer1">
    <path
       d="m 225,268.36218 0,3 3,0 0,-3 z m 1,1 1,0 0,1 -1,0 z"
       id="rect2987"
       style="fill:#ffffff;stroke:none" />
    <path
       d="m 229,268.36218 0,3 3,0 0,-3 z m 1,1 1,0 0,1 -1,0 z"
       id="rect2987-1"
       style="fill:#ffffff;stroke:none" />
    <path
       d="m 233,268.36218 0,3 3,0 0,-3 z m 1,1 1,0 0,1 -1,0 z"
       id="rect2987-7"
       style="fill:#ffffff;stroke:none" />
    <path
       d="m 225,264.36218 0,3 3,0 0,-3 z m 1,1 1,0 0,1 -1,0 z"
       id="rect2987-4"
       style="fill:#ffffff;stroke:none" />
    <path
       d="m 229,264.36218 0,3 3,0 0,-3 z m 1,1 1,0 0,1 -1,0 z"
       id="rect2987-0"
       style="fill:#ffffff;stroke:none" />
    <path
       d="m 233,264.36218 0,3 3,0 0,-3 z m 1,1 1,0 0,1 -1,0 z"
       id="rect2987-9"
       style="fill:#ffffff;stroke:none" />
    <path
       d="m 233,260.36218 0,3 3,0 0,-3 z m 1,1 1,0 0,1 -1,0 z"
       id="rect2987-48"
       style="fill:#ffffff;stroke:none" />
    <path
       d="m 229,260.36218 0,3 3,0 0,-3 z m 1,1 1,0 0,1 -1,0 z"
       id="rect2987-8"
       style="fill:#ffffff;stroke:none" />
    <path
       d="m 225,260.36218 0,3 3,0 0,-3 z m 1,1 1,0 0,1 -1,0 z"
       id="rect2987-2"
       style="fill:#ffffff;stroke:none" />
  </g>
</svg>
